<?xml version="1.0" encoding="UTF-8" standalone="no"?>
<!-- Created with Inkscape (http://www.inkscape.org/) -->

<svg
   width="600"
   height="600"
   viewBox="0 0 158.75 158.75"
   version="1.1"
   id="svg5"
   xmlns:inkscape="http://www.inkscape.org/namespaces/inkscape"
   xmlns:sodipodi="http://sodipodi.sourceforge.net/DTD/sodipodi-0.dtd"
   xmlns="http://www.w3.org/2000/svg"
   xmlns:svg="http://www.w3.org/2000/svg">
  <sodipodi:namedview
     id="namedview7"
     pagecolor="#ffffff"
     bordercolor="#000000"
     borderopacity="0.25"
     inkscape:showpageshadow="2"
     inkscape:pageopacity="0.0"
     inkscape:pagecheckerboard="0"
     inkscape:deskcolor="#d1d1d1"
     inkscape:document-units="px"
     showgrid="false" />
  <defs
     id="defs2" />
  <g
     inkscape:label="Ebene 1"
     inkscape:groupmode="layer"
     id="layer1">
    <rect
       style="fill:#309675;fill-opacity:1;stroke-width:0.382234;stroke-linecap:square;stroke-opacity:0.25;paint-order:markers fill stroke"
       id="rect234"
       width="158.75"
       height="158.75"
       x="0"
       y="0" />
    <g
       aria-label="Sh"
       id="text1004"
       style="font-style:italic;font-weight:900;font-size:105.833px;font-family:'Sofia Sans';-inkscape-font-specification:'Sofia Sans Heavy Italic';fill:#309675;stroke-width:0.327001;stroke-linecap:square;stroke-opacity:0.25;paint-order:markers fill stroke"
       transform="matrix(1.0952579,0,0,1.0952579,-5.242802,-7.561098)">
      <path
         d="m 47.733121,116.15197 q -9.419137,0 -15.345785,-2.32833 -5.820815,-2.43416 -8.149141,-7.30247 -2.222493,-4.86832 -0.740831,-12.276632 0.317499,-1.481662 1.587495,-1.481662 h 13.652457 q 1.587495,0 1.375829,1.481662 -0.317499,2.539992 0.634998,4.127487 0.952497,1.587495 3.069157,2.328325 2.11666,0.74083 5.397483,0.74083 4.868318,0 7.090811,-1.37583 2.328326,-1.375826 2.328326,-4.127484 0,-1.269996 -0.634998,-2.328326 -0.529165,-1.164163 -1.799161,-2.11666 -1.164163,-1.05833 -3.280823,-2.010827 L 40.853976,83.555405 q -4.23332,-2.11666 -6.984978,-4.656652 -2.751658,-2.539992 -4.021654,-5.820815 -1.269996,-3.280823 -1.269996,-7.619976 0,-9.842469 6.879145,-15.451618 6.984978,-5.714982 19.261606,-5.714982 9.207471,0 15.028286,2.434159 5.926648,2.434159 8.254974,7.196644 2.434159,4.762485 1.164163,11.747463 -0.317499,1.587495 -1.481662,1.587495 H 63.819737 q -1.481662,0 -1.269996,-1.587495 0.423332,-3.598322 -1.904994,-5.29165 -2.222493,-1.693328 -6.667479,-1.693328 -3.809988,0 -5.926648,1.481662 -2.11666,1.375829 -2.11666,3.809988 0,1.269996 0.423332,2.328326 0.529165,0.952497 1.693328,1.904994 1.269996,0.846664 3.386656,2.010827 l 12.911626,6.561646 q 4.127487,2.11666 6.667479,4.550819 2.645825,2.434159 3.809988,5.609149 1.269996,3.17499 1.269996,7.40831 0,10.689129 -7.196644,16.298279 -7.196644,5.50332 -21.1666,5.50332 z"
         style="fill:#ffffff;stroke-width:0.327"
         id="path1158" />
      <path
         d="m 78.953898,114.88197 q -1.481662,0 -1.269996,-1.48166 L 88.690534,44.079696 q 0.211666,-1.481662 1.481662,-1.481662 h 13.652464 q 1.58749,0 1.37583,1.481662 L 94.299683,113.40031 q -0.211666,1.48166 -1.587495,1.48166 z m 31.538242,0 q -1.5875,0 -1.37583,-1.48166 l 4.86831,-30.903235 q 1.16417,-6.984978 -4.44498,-6.984978 -1.905,0 -3.91582,0.740831 -1.905,0.634998 -4.02166,2.11666 -2.116663,1.375829 -4.339153,3.598322 l 0.42333,-10.477467 q 5.397493,-5.397483 10.583303,-7.937475 5.18582,-2.539992 10.79497,-2.539992 7.51414,0 10.47747,4.550819 3.06915,4.550819 1.58749,13.546624 l -5.39748,34.289891 q -0.3175,1.48166 -1.48166,1.48166 z"
         style="fill:#ffffff;stroke-width:0.327"
         id="path1160" />
    </g>
  </g>
</svg>
